Optional Greek Subtitles

Movie Trailer, Sample, Snapsots, English and Greek Info.txt Included

---------------------------------------------------------------------

Battle Planet (2008) 
http://www.imdb.com/title/tt1016024/

In the not-so-distant future, Captain Jordan Strider, a Special Forces Officer in the New World Alliance, is chosen for a top-secret mission. 

Sent to a desolate planet, Terra 219, to arrest possible traitors to the Alliance, Strider must survive with only a government issued experimental suit as protection. He quickly learns of a plan to end all humanity. 

The Captain now faces a choice; to continue as instructed on his mission or choose a new mission, to save the world.

-----------------------------------------------------------------------

General

Format                           : DivX
Format/Info                      : Hack of AVI
File size                        : 704 MiB
Duration                         : 1h 25mn
Overall bit rate                 : 1 155 Kbps

Video
ID                               : 0
Format                           : MPEG-4 Visual
Format profile                   : AdvancedSimple@L5
Format settings, BVOP            : Yes
Format settings, QPel            : No
Format settings, GMC             : No warppoints
Format settings, Matrix          : Custom
Codec ID                         : XVID
Codec ID/Hint                    : XviD
Duration                         : 1h 25mn
Bit rate                         : 697 Kbps
Width                            : 544 pixels
Height                           : 304 pixels
Display aspect ratio             : 16:9
Frame rate                       : 23.976 fps
Resolution                       : 24 bits
Colorimetry                      : 4:2:0
Scan type                        : Progressive
Bits/(Pixel*Frame)               : 0.176
Stream size                      : 425 MiB (60%)
Title                            : Video
Writing library                  : XviD 1.1.2 (UTC 2006-11-01)

Audio
ID                               : 1
Format                           : AC-3
Format/Info                      : Audio Coding 3
Codec ID                         : 2000
Duration                         : 1h 25mn
Bit rate mode                    : Constant
Bit rate                         : 448 Kbps
Channel(s)                       : 6 channels
Channel positions                : Front: L C R, Surround: L R, LFE
Sampling rate                    : 48.0 KHz
Stream size                      : 273 MiB (39%)
Alignment                        : Split accross interleaves
Interleave, duration             : 96 ms (2.30 video frames)
Interleave, preload duration     : 96 ms
Title                            : Audio

Text
Format                           : DivX Subtitle
Codec ID                         : DXSB
Codec ID/Info                    : Subtitle in AVI from DivX networks
Width                            : 720 pixels
Height                           : 576 pixels
Resolution                       : 4 bits
Stream size                      : 2.00 MiB (0%)
Title                            : Subtitle - el;02

!